<?xml version='1.0' encoding='utf-8'?>
<svg xmlns="http://www.w3.org/2000/svg" width="240mm" height="140mm" version="1.1" viewBox="0 0 240 140"> <defs> <filter id="a" x="-3.0684e-5" y="-2.9346e-5" width="1.0001" height="1.0001" color-interpolation-filters="sRGB"> </defs> <g stroke-miterlimit="4"> <g transform="matrix(2.2482 0 0 2.2482 28.296 -185.71)" fill="none" stroke="#000" stroke-width=".44481"> <g transform="translate(29.149 -170.03)" fill="none" stroke="#000" stroke-miterlimit="4" stroke-width=".44481"> <path d="m0 277.16 11.642-6.6146 11.642 6.6146v13.229l-11.642 6.6146-11.642-6.6146z" stroke-linecap="round" stroke-linejoin="bevel"/> <path d="m5.8208 280.46h11.642l-5.8208 9.9219z" stroke-linecap="round" stroke-linejoin="bevel"/> <path d="m11.642 270.54-11.642 19.844h23.283z" stroke-linecap="round" stroke-linejoin="bevel"/> <path d="m5.8208 280.46-5.8208-3.3073" stroke-linecap="butt" stroke-linejoin="miter"/> <path d="m17.462 280.46 5.8208-3.3073" stroke-linecap="butt" stroke-linejoin="miter"/> <path d="m11.642 290.39v6.6146" stroke-linecap="butt" stroke-linejoin="miter"/> </g> </g> <ellipse cx="120" cy="70" rx="57.498" ry="57.498" fill="none" stroke="#000" stroke-width="2"/> <g fill="#fff" filter="url(#a)"> <g transform="matrix(-.29243 .68893 -.68893 -.29243 133.53 45.473)" stroke-width=".66807"> <g transform="translate(27.561 -204.89)" fill="#fff" fill-rule="evenodd" stroke="#000" stroke-linecap="round" stroke-linejoin="round" stroke-miterlimit="4" stroke-width=".66807"> <path d="m26.458 283.77-13.229-13.229-13.229 13.229 13.229 13.229z"/> <path d="m5.5121 282.45 7.7171-11.906 7.717 11.906"/> <path d="m13.229 285.09v11.906"/> </g> </g> <g transform="translate(4.8652e-7 -5)" stroke-width=".5"> <g transform="matrix(.74842 0 0 .74842 89.471 99.897)" fill="#fff" stroke-miterlimit="4" stroke-width=".66807"> <g transform="translate(27.561 -241.51)" fill="#fff" fill-rule="evenodd" stroke="#000" stroke-linecap="round" stroke-miterlimit="4" stroke-width=".66807"> <path d="m0 274.09h26.458l-13.229 22.913z" stroke-linejoin="bevel"/> <path d="m0 274.09 13.229 7.6465v15.266" stroke-linejoin="round"/> <path d="m13.229 281.73 13.229-7.6465" stroke-linejoin="miter"/> </g> </g> </g> <g transform="translate(5)" stroke-width=".5"> <g transform="matrix(.74842 0 0 .74842 116.3 17.045)" fill="#fff" stroke-miterlimit="4" stroke-width=".66807"> <g transform="translate(58.524 -238.72)" fill="#fff" fill-rule="evenodd" stroke="#000" stroke-linecap="round" stroke-linejoin="bevel" stroke-miterlimit="4" stroke-width=".66807"> <path d="m13.229 297 13.229-7.6379v-13.229l-13.229-7.6379-13.229 7.6379v13.229z"/> <path d="m13.229 268.5v14.252l-13.229 6.6146"/> <path d="m13.229 282.75 13.229 6.6146"/> </g> </g> </g> </g> </g> <g stroke-miterlimit="4"> <g transform="matrix(.35136 -.66082 .66082 .35136 91.226 119.03)" fill="#fff" filter="url(#a)" stroke-width=".66807"> <g fill="#fff" fill-rule="evenodd" stroke="#000" stroke-linecap="round" stroke-linejoin="round" stroke-miterlimit="4" stroke-width=".66807"> <path d="m84.982 78.883-13.229-13.229-13.229 13.229 13.229 13.229z"/> <path d="m64.036 77.56 7.7171-11.906 7.717 11.906"/> <path d="m71.753 81v11.112"/> </g> </g> <path transform="matrix(.35136 -.66082 .66082 .35136 91.226 119.03)" d="m58.524 78.883 5.5121-1.3229 7.7171 3.4396 7.717-3.4396 5.5122 1.3229" fill="#fff" fill-rule="evenodd" stroke="#000" stroke-linecap="round" stroke-linejoin="round" stroke-width=".66807"/> <g fill="#fff" filter="url(#a)" stroke-width=".5"> <path d="m60.136 92.915 9.9386-5.7443 9.7896 5.7443 0.07448 11.34-9.9386 5.7443-9.7896-5.7443z" fill="#fff" fill-rule="evenodd" stroke="#000" stroke-linecap="round" stroke-linejoin="round" stroke-miterlimit="4" stroke-width=".5"/> </g> <path d="m60.136 92.915h19.728l-9.8641 17.085z" fill="none" filter="url(#a)" stroke="#000" stroke-linecap="round" stroke-linejoin="bevel" stroke-width=".5"/> <path transform="matrix(-.29243 .68893 -.68893 -.29243 266.62 124.38)" d="m0 283.77 5.5121-1.3229 7.7171 2.6458 7.717-2.6458 5.5122 1.3229" fill="none" filter="url(#a)" stroke="#000" stroke-linecap="round" stroke-linejoin="round" stroke-width=".66807"/> <g transform="matrix(.74098 0 0 .74098 41.655 35.794)" stroke-width=".67478"> <g transform="translate(3.0152 -109.64)" fill="#fff"> <path d="m116.08 77.433v2.9002l-5.4258 9.3978-2.5117 1.4501h-10.852l-2.5117-1.4501-5.4258-9.3978v-2.9002l5.4258-9.3978 2.5117-1.4501h10.852l2.5117 1.4501z" fill="#fff" fill-rule="evenodd" stroke="#000" stroke-linecap="round" stroke-linejoin="round" stroke-miterlimit="4" stroke-width=".67478"/> </g> <path d="m105.73-30.762v-8.7312" fill="none" stroke="#000" stroke-linecap="round" stroke-linejoin="round"/> <path d="m97.794-41.61 7.9375 2.1167 7.9375-2.1167" fill="none" stroke="#000" stroke-linecap="round" stroke-linejoin="round"/> <path d="m105.73-30.762 7.5615 4.3656" fill="none" stroke="#000" stroke-linecap="round" stroke-linejoin="round"/> <path d="m119.09-32.212-5.8018 5.8157-2.1357 7.9324" fill="none" stroke="#000" stroke-linecap="round" stroke-linejoin="round"/> <path d="m105.73-30.762-7.5615 4.3656" fill="none" stroke="#000" stroke-linecap="round" stroke-linejoin="round"/> <path d="m100.31-18.464-2.1357-7.9324-5.8018-5.8157" fill="none" stroke="#000" stroke-linecap="round" stroke-linejoin="round"/> </g> </g> </svg>
